<?xml version="1.0" encoding="UTF-8"?>
<svg width="26px" height="25px" viewBox="0 0 26 25" version="1.1" xmlns="http://www.w3.org/2000/svg" xmlns:xlink="http://www.w3.org/1999/xlink">
    <title>CFD6577D-E537-4389-BCC6-A74E3E881D8F</title>
    <g id="Campaigner-App-Design" stroke="none" stroke-width="1" fill="none" fill-rule="evenodd">
        <g id="Manage-Campaign" transform="translate(-1166.000000, -22.000000)" fill="#202020" fill-rule="nonzero" stroke="#202020" stroke-width="0.2">
            <g id="Header-Option-01" transform="translate(0.000000, -0.000000)">
                <path d="M1168.66667,23.093702 C1168.20242,23.093702 1167.76619,23.2507476 1167.46007,23.5593407 C1167.15395,23.8679366 1167,24.3016552 1167,24.7493076 L1167,37.4422897 C1167,37.8900138 1167.1541,38.3184 1167.46007,38.6236414 C1167.76604,38.9288828 1168.20071,39.0874759 1168.65799,39.0979034 C1169.03047,39.0979034 1169.40469,39.0979034 1169.77778,39.0979034 L1169.77778,42.9609655 C1169.77942,43.1744552 1169.91791,43.3808828 1170.11565,43.4645517 C1170.31339,43.5481931 1170.55917,43.5043862 1170.71528,43.3576276 L1175.27257,39.0979034 L1186.44444,39.0979034 C1186.90869,39.0979034 1187.34492,38.9322207 1187.65104,38.6236414 C1187.95716,38.3150621 1188.11111,37.889931 1188.11111,37.4422897 L1188.11111,24.7493076 C1188.11111,24.3016552 1187.96584,23.8679752 1187.65972,23.5593407 C1187.3536,23.250709 1186.90877,23.093702 1186.44444,23.093702 C1180.59184,23.093702 1174.51928,23.093702 1168.66667,23.093702 Z M1168.66667,24.19744 C1174.51928,24.19744 1180.59183,24.19744 1186.44444,24.19744 C1186.67255,24.19744 1186.78479,24.2584552 1186.86111,24.3354069 C1186.93744,24.4123586 1187,24.5316441 1187,24.7493076 L1187,37.4422897 C1187,37.6599724 1186.93744,37.7792552 1186.86111,37.8561931 C1186.78479,37.933131 1186.67263,37.9941517 1186.44444,37.9941517 L1175.05556,37.9941517 C1174.91578,37.9941517 1174.77626,38.0465103 1174.67361,38.1407448 L1170.88889,41.6761655 L1170.88889,38.5460138 C1170.88886,38.2570759 1170.62421,37.9941793 1170.33333,37.9941517 C1169.77862,37.9941517 1169.21896,37.9941517 1168.66667,37.9941517 C1168.43991,37.9867034 1168.31649,37.9225379 1168.24132,37.8475586 C1168.16478,37.7711724 1168.11111,37.6598897 1168.11111,37.4422897 L1168.11111,24.7493076 C1168.11111,24.5316441 1168.17367,24.4123503 1168.25,24.3354069 C1168.32633,24.2584634 1168.43849,24.19744 1168.66667,24.19744 Z M1190.82812,27.2240938 C1190.55806,27.2536331 1190.33173,27.506069 1190.33333,27.7759614 L1190.33333,40.7534897 C1190.33334,40.9717517 1190.27905,41.0746483 1190.20312,41.1501517 C1190.1272,41.2256552 1190.00183,41.2966345 1189.76042,41.3053793 L1187.83333,41.3053793 C1187.54245,41.3054069 1187.27781,41.5682759 1187.27778,41.8572414 L1187.27778,44.9873655 L1183.49306,41.4519448 C1183.39041,41.3577103 1183.25089,41.3041655 1183.11111,41.3053793 L1175.88889,41.3053793 C1175.59538,41.3012414 1175.32542,41.5656552 1175.32542,41.8572414 C1175.32542,42.1488276 1175.59538,42.4132138 1175.88889,42.4091034 L1182.8941,42.4091034 L1187.45139,46.6688276 C1187.6075,46.8155862 1187.85328,46.8594207 1188.05102,46.7757517 C1188.24876,46.6920828 1188.38725,46.4856828 1188.38889,46.2721931 L1188.38889,42.4091034 L1189.77778,42.4091034 C1189.78356,42.4091862 1189.78935,42.4091862 1189.79514,42.4091034 C1190.24975,42.3925517 1190.67874,42.2387586 1190.98438,41.9348414 C1191.29001,41.6309517 1191.44445,41.2 1191.44445,40.7534897 L1191.44445,27.7759614 C1191.44628,27.4657517 1191.13854,27.1901931 1190.82812,27.2240938 L1190.82812,27.2240938 Z" id="icon-message"></path>
            </g>
        </g>
    </g>
</svg>